<?xml version="1.0" standalone="no"?>
<!DOCTYPE svg PUBLIC "-//W3C//DTD SVG 1.0//EN" "http://www.w3.org/TR/2001/REC-SVG-20010904/DTD/svg10.dtd">
<svg xmlns="http://www.w3.org/2000/svg" data-name="Layer 1" viewBox="0 0 32 32" id="1" xmlns:inkscape ="http://www.inkscape.org/namespaces/inkscape" >
<desc>CopyRight:SVG Design Editor;
configurationStart;Unit=smInches;Dpi=96;Division=4;Grid=True;Zoom=33.27926;CanvasW=32;CanvasH=32;configurationEnd;</desc>
<g inkscape:label = "nodata Default Layer" inkscape:groupmode = "layer" ><path style="fill:none;stroke:#3D5AA9; stroke-width:1" d="m23.5,27.5l-17,0l-1,-15.19a0.76 0.76,0 0,1 0.77,-0.81l3.73,0a1.11 1.11,0 0,1 0.89,0.44l1.22,1.56l11.39,0l0,2" stroke-linecap = "round" stroke-linejoin = "round" class = " colorStroke29abe2 svgStroke" transform = "matrix(0.9999999,0,0,0.9999999,0,0)" vector-effect="non-scaling-stroke" pen = "1,1" />
<path style="fill:none;stroke:#3D5AA9; stroke-width:1" d="m26.3,20.7l0.84,-3.2l-17.89,0l-2.75,10l16.91,0a1.42 1.42,0 0,0 1.37,-1.06l0.76,-2.88" stroke-linecap = "round" stroke-linejoin = "round" class = " colorStroke29abe2 svgStroke" transform = "matrix(0.9999999,0,0,0.9999999,0,0)" vector-effect="non-scaling-stroke" pen = "1,1" />
<path style="fill:none;stroke:#3D5AA9; stroke-width:1" d="m20.62,3.61c-2.37,0.39 -4.12,1.76 -4.12,3.39a2.57 2.57,0 0,0 0.7,1.7l-0.7,2.8l2.86,-1.43a8.12 8.12,0 0,0 2.64,0.43c3,0 5.5,-1.57 5.5,-3.5c0,-1.6 -1.69,-2.95 -4,-3.37" stroke-linecap = "round" stroke-linejoin = "round" class = " colorStroke29abe2 svgStroke" transform = "matrix(0.9999999,0,0,0.9999999,0,0)" vector-effect="non-scaling-stroke" pen = "1,1" />
<line style="fill:none;stroke:#3D5AA9; stroke-width:1" x1 = "21.25" y1 = "6.25" x2 = "22.75" y2 = "7.75" transform = "matrix(0.9999999,0,0,0.9999999,0,0)" vector-effect="non-scaling-stroke" pen = "1,1" stroke-linecap = "round" stroke-linejoin = "round" class = " colorStroke29abe2 svgStroke" />
<line style="fill:none;stroke:#3D5AA9; stroke-width:1" x1 = "22.75" y1 = "6.25" x2 = "21.25" y2 = "7.75" transform = "matrix(0.9999999,0,0,0.9999999,0,0)" vector-effect="non-scaling-stroke" pen = "1,1" stroke-linecap = "round" stroke-linejoin = "round" class = " colorStroke29abe2 svgStroke" />
</g>
</svg>
