<svg xmlns="http://www.w3.org/2000/svg" viewBox="0 0 24 24" id="NoCamera"><g data-name="5. No Camera" fill="#FFFFFFFF" class="color000000 svgShape"><path d="M12 17a4 4 0 0 0 4-4 4.049 4.049 0 0 0-.06-.7l-4.64 4.64a4.049 4.049 0 0 0 .7.06Z" fill="#3d5aa9" class="color000000 svgShape"></path><path d="M17.54 10.7A5.9 5.9 0 0 1 18 13a6 6 0 0 1-6 6 5.9 5.9 0 0 1-2.3-.46L5.24 23H20a4 4 0 0 0 4-4V8a3.953 3.953 0 0 0-1.06-2.7zM23.707.293a1 1 0 0 0-1.414 0L18.586 4h-.866l-.32-.95a2.584 2.584 0 0 0-.21-.48A2.975 2.975 0 0 0 14.56 1H9.44A2.978 2.978 0 0 0 6.6 3.05L6.28 4H4a4 4 0 0 0-4 4v11a4.049 4.049 0 0 0 .06.7 3.95 3.95 0 0 0 .924 1.9l-.691.691a1 1 0 1 0 1.414 1.414l22-22a1 1 0 0 0 0-1.412zM6 13a6 6 0 0 1 6-6 5.942 5.942 0 0 1 2.857.729l-1.515 1.515A3.936 3.936 0 0 0 12 9a4 4 0 0 0-4 4 3.936 3.936 0 0 0 .244 1.342l-1.515 1.515A5.942 5.942 0 0 1 6 13z" fill="#3d5aa9" class="color000000 svgShape"></path></g></svg>