<svg width="47.49999999999999" height="47.49999999999999" xmlns="http://www.w3.org/2000/svg">
 <defs>
  <clipPath id="a">
   <path d="m0,38.10582l38,0l0,-38l-38,0l0,38z" id="svg_1"/>
  </clipPath>
  <clipPath id="b">
   <path d="m18.583,27.93882c-2.957,-0.231 -5.666,2.542 -4.666,7.042c-3.239,-2.386 -3.332,-6.403 -2.333,-9c1.041,-2.708 -0.042,-4.958 -2.584,-5.208c-2.839,-0.28 -4.416,3.042 -2.962,8.333a16.936,16.936 0 0 1 -4.038,-11c0,-9.389 7.611,-17 17,-17s17,7.611 17,17c0,2.063 -0.367,4.039 -1.04,5.868c-0.46,-5.388 -3.333,-8.157 -6.335,-6.868c-2.812,1.208 -0.917,5.917 -0.777,8.164c0.236,3.809 -0.012,8.169 -6.931,11.794c2.875,-5.499 0.333,-8.917 -2.334,-9.125" id="svg_2"/>
  </clipPath>
 </defs>
 <g>
  <title>background</title>
  <rect x="-1" y="-1" width="49.5" height="49.5" id="canvas_background" fill="none"/>
 </g>
 <g>
  <title>Layer 1</title>
  <g stroke="null" id="svg_7">
   <g stroke="null" clip-path="url(#a)" transform="matrix(0.8736289201236671,0,0,-0.8238916495361256,6.963958498833909,39.25180575263549) " id="svg_3">
    <path stroke="null" fill="#f4900c" d="m36,17.896516c0,2.063 -0.367,4.039 -1.04,5.868c-0.46,-5.389 -3.333,-8.157 -6.335,-6.868c-2.813,1.208 -0.917,5.917 -0.777,8.164c0.236,3.809 -0.012,8.169 -6.931,11.794c2.875,-5.5 0.333,-8.916 -2.334,-9.125c-2.958,-0.23 -5.666,2.542 -4.666,7.042c-3.238,-2.386 -3.333,-6.402 -2.334,-9c1.042,-2.708 -0.041,-4.958 -2.583,-5.208c-2.839,-0.28 -4.417,3.041 -2.962,8.333a16.936,16.936 0 0 1 -4.038,-11c0,-9.389 7.611,-17 17,-17s17,7.611 17,17" id="svg_4"/>
   </g>
   <g stroke="null" clip-path="url(#b)" transform="matrix(0.8736289201236671,0,0,-0.8238916495361256,6.963958498833909,39.25180575263549) " id="svg_5">
    <path stroke="null" fill="#ffcc4d" d="m31,6.896516c0,2.187 -0.584,4.236 -1.605,6.001c0.147,-3.084 -2.562,-4.293 -4.02,-3.709c-2.105,0.843 -1.541,2.291 -2.083,5.291c-0.542,3 -2.625,5.084 -5.709,6c2.25,-6.333 -1.247,-8.667 -3.08,-9.084c-1.872,-0.426 -3.753,0.001 -3.968,4.007a11.967,11.967 0 0 1 -3.535,-8.506c0,-6.627 5.373,-12 12,-12s12,5.373 12,12" id="svg_6"/>
   </g>
  </g>
 </g>
</svg>